<svg width="649" height="150" viewBox="0 0 649 150" fill="none" xmlns="http://www.w3.org/2000/svg">
<path d="M212.346 106.628C207.424 106.628 203.18 105.606 199.612 103.562C196.105 101.517 193.46 98.7291 191.676 95.1976C189.892 91.6043 189 87.6082 189 83.2094C189 76.0227 190.999 70.2299 194.998 65.8312C199.058 61.4324 205.056 59.233 212.992 59.233C217.667 59.233 221.788 60.1313 225.356 61.928L224.065 69.2696C220.312 67.5349 216.56 66.6675 212.807 66.6675C207.886 66.6675 204.102 68.0925 201.457 70.9424C198.812 73.7304 197.489 77.6955 197.489 82.8377C197.489 87.9799 198.75 92.007 201.273 94.9188C203.856 97.8307 207.64 99.2866 212.622 99.2866C216.621 99.2866 220.466 98.3573 224.157 96.4987L225.264 103.19C223.911 104.119 222.035 104.925 219.635 105.606C217.298 106.288 214.868 106.628 212.346 106.628Z" fill="white"/>
<path d="M244.005 106.628C239.822 106.628 236.439 105.389 233.855 102.911C231.333 100.433 230.072 97.2731 230.072 93.4319C230.072 87.6702 232.779 83.5502 238.192 81.072C243.606 78.5938 249.911 77.2928 257.109 77.1688C257.109 73.0798 256.309 70.3229 254.709 68.8979C253.171 67.411 250.68 66.6675 247.235 66.6675C245.328 66.6675 243.421 66.9773 241.514 67.5969C239.607 68.1544 237.546 69.2077 235.332 70.7565L234.132 63.9725C235.978 62.5476 238.254 61.4014 240.96 60.534C243.667 59.6667 246.497 59.233 249.45 59.233C253.325 59.233 256.401 59.9145 258.677 61.2775C261.015 62.6405 262.707 64.9018 263.752 68.0615C264.86 71.2212 265.413 75.558 265.413 81.072V90.3652C265.413 92.8434 265.506 94.733 265.69 96.034C265.936 97.2731 266.428 98.2334 267.167 98.9149C267.905 99.5964 269.043 99.9372 270.581 99.9372H271.411L270.119 106.628H269.473C266.89 106.628 264.86 106.38 263.383 105.885C261.907 105.389 260.769 104.677 259.969 103.747C259.231 102.818 258.523 101.548 257.847 99.9372C254.033 104.398 249.419 106.628 244.005 106.628ZM245.574 99.9372C247.789 99.9372 249.911 99.3796 251.941 98.2644C254.033 97.1492 255.755 95.6623 257.109 93.8037V82.9306C250.465 83.1784 245.697 84.0768 242.806 85.6257C239.976 87.1126 238.561 89.5598 238.561 92.9673C238.561 95.3216 239.176 97.0873 240.407 98.2644C241.699 99.3796 243.421 99.9372 245.574 99.9372Z" fill="white"/>
<path d="M277.821 60.1623H284.65L285.665 67.6898C288.003 64.7779 290.217 62.6405 292.309 61.2775C294.462 59.9145 296.707 59.233 299.045 59.233C299.783 59.233 300.49 59.3259 301.167 59.5118L300.337 68.712C299.537 68.5262 298.614 68.4332 297.568 68.4332C295.292 68.4332 293.139 68.9599 291.109 70.0131C289.079 71.0044 287.603 72.1815 286.68 73.5445V105.699H277.821V60.1623Z" fill="white"/>
<path d="M345.894 36V105.699H338.512L337.589 100.123C336.051 102.229 334.052 103.84 331.591 104.955C329.131 106.071 326.516 106.628 323.748 106.628C319.934 106.628 316.458 105.575 313.321 103.469C310.183 101.362 307.692 98.5122 305.846 94.9188C304.063 91.3255 303.171 87.3604 303.171 83.0236C303.171 78.8106 304.001 74.8765 305.662 71.2212C307.384 67.5659 309.814 64.654 312.952 62.4856C316.089 60.3172 319.688 59.233 323.748 59.233C326.455 59.233 329.008 59.7286 331.407 60.7199C333.806 61.7112 335.867 63.2291 337.589 65.2736V36H345.894ZM325.224 99.1937C327.439 99.1937 329.561 98.6361 331.591 97.5209C333.621 96.3438 335.282 94.5471 336.574 92.1309C337.866 89.7147 338.512 86.6789 338.512 83.0236C338.512 79.6161 337.866 76.6732 336.574 74.195C335.282 71.7168 333.591 69.8582 331.499 68.6191C329.469 67.3181 327.377 66.6675 325.224 66.6675C321.041 66.6675 317.719 68.2164 315.259 71.3141C312.859 74.3499 311.66 78.2531 311.66 83.0236C311.66 87.6082 312.89 91.4494 315.351 94.5471C317.812 97.6448 321.103 99.1937 325.224 99.1937Z" fill="white"/>
<path d="M367.55 106.628C363.367 106.628 359.983 105.389 357.4 102.911C354.877 100.433 353.616 97.2731 353.616 93.4319C353.616 87.6702 356.323 83.5502 361.736 81.072C367.15 78.5938 373.455 77.2928 380.653 77.1688C380.653 73.0798 379.853 70.3229 378.254 68.8979C376.716 67.411 374.224 66.6675 370.779 66.6675C368.872 66.6675 366.965 66.9773 365.058 67.5969C363.151 68.1544 361.091 69.2077 358.876 70.7565L357.676 63.9725C359.522 62.5476 361.798 61.4014 364.505 60.534C367.211 59.6667 370.041 59.233 372.994 59.233C376.87 59.233 379.945 59.9145 382.222 61.2775C384.559 62.6405 386.251 64.9018 387.297 68.0615C388.404 71.2212 388.958 75.558 388.958 81.072V90.3652C388.958 92.8434 389.05 94.733 389.235 96.034C389.481 97.2731 389.973 98.2334 390.711 98.9149C391.449 99.5964 392.587 99.9372 394.125 99.9372H394.956L393.664 106.628H393.018C390.434 106.628 388.404 106.38 386.928 105.885C385.451 105.389 384.313 104.677 383.513 103.747C382.775 102.818 382.068 101.548 381.391 99.9372C377.577 104.398 372.963 106.628 367.55 106.628ZM369.119 99.9372C371.333 99.9372 373.455 99.3796 375.486 98.2644C377.577 97.1492 379.3 95.6623 380.653 93.8037V82.9306C374.009 83.1784 369.242 84.0768 366.35 85.6257C363.52 87.1126 362.106 89.5598 362.106 92.9673C362.106 95.3216 362.721 97.0873 363.951 98.2644C365.243 99.3796 366.965 99.9372 369.119 99.9372Z" fill="white"/>
<path d="M423.696 59.233C436 59.233 442.152 66.3578 442.152 80.6073V105.699H433.847V80.6073C433.847 75.7129 432.924 72.1815 431.079 70.0131C429.295 67.7827 426.28 66.6675 422.036 66.6675C419.329 66.6675 416.868 67.1632 414.654 68.1544C412.439 69.1457 410.778 70.6326 409.671 72.6152V105.699H401.366V60.1623H407.825L408.748 64.9948C411.147 62.8264 413.546 61.3394 415.945 60.534C418.406 59.6667 420.99 59.233 423.696 59.233Z" fill="white"/>
<path d="M472.657 106.628C468.043 106.628 464.045 105.606 460.661 103.562C457.278 101.455 454.694 98.6051 452.91 95.0118C451.126 91.4184 450.234 87.3914 450.234 82.9306C450.234 78.4699 451.126 74.4428 452.91 70.8495C454.694 67.2561 457.278 64.4372 460.661 62.3927C464.045 60.2862 468.043 59.233 472.657 59.233C477.209 59.233 481.177 60.2862 484.561 62.3927C488.006 64.4372 490.62 67.2561 492.404 70.8495C494.188 74.4428 495.08 78.4699 495.08 82.9306C495.08 87.3914 494.188 91.4184 492.404 95.0118C490.62 98.6051 488.006 101.455 484.561 103.562C481.177 105.606 477.209 106.628 472.657 106.628ZM472.657 99.1937C477.086 99.1937 480.501 97.7688 482.9 94.9188C485.36 92.0689 486.591 88.0729 486.591 82.9306C486.591 77.7884 485.36 73.7923 482.9 70.9424C480.501 68.0925 477.086 66.6675 472.657 66.6675C468.228 66.6675 464.783 68.0925 462.322 70.9424C459.923 73.7923 458.724 77.7884 458.724 82.9306C458.724 88.0729 459.923 92.0689 462.322 94.9188C464.783 97.7688 468.228 99.1937 472.657 99.1937Z" fill="white"/>
<path d="M532.363 107C526.396 107 521.013 105.606 516.215 102.818C511.416 100.03 507.633 96.065 504.865 90.9228C502.097 85.7805 500.712 79.8329 500.712 73.0798C500.712 66.3268 502.127 60.4101 504.957 55.3298C507.848 50.2496 511.816 46.3154 516.861 43.5275C521.905 40.7395 527.657 39.3456 534.116 39.3456C537.377 39.3456 540.575 39.6863 543.713 40.3678C546.912 41.0493 549.772 41.9476 552.294 43.0628L551.464 50.7762C545.497 48.4839 539.806 47.3377 534.393 47.3377C529.041 47.3377 524.55 48.4839 520.921 50.7762C517.353 53.0065 514.677 56.0733 512.893 59.9764C511.17 63.8176 510.309 68.2164 510.309 73.1728C510.309 80.9791 512.37 87.2365 516.492 91.945C520.675 96.6536 526.796 99.0079 534.854 99.0079C536.577 99.0079 538.422 98.8839 540.391 98.6361C542.359 98.3263 544.113 97.8617 545.651 97.2421V81.072H535.5V73.0798H554.417V102.075C551.71 103.562 548.45 104.77 544.636 105.699C540.883 106.566 536.792 107 532.363 107Z" fill="white"/>
<path d="M566.493 40.6466H587.44C594.453 40.6466 599.928 42.2884 603.865 45.572C607.802 48.7936 609.77 53.75 609.77 60.4411C609.77 69.1147 606.018 75.2173 598.513 78.7487L613 105.699H602.296L589.193 80.3285H575.721V105.699H566.493V40.6466ZM587.347 72.4293C591.654 72.4293 594.945 71.3761 597.221 69.2696C599.497 67.1632 600.635 64.2203 600.635 60.4411C600.635 56.6619 599.497 53.75 597.221 51.7055C595.006 49.599 591.715 48.5458 587.347 48.5458H575.721V72.4293H587.347Z" fill="white"/>
<path d="M153.25 69.1406H152.612L143.568 37.6852C143.542 37.5997 143.511 37.5159 143.474 37.4344C143.585 37.076 143.641 36.7031 143.641 36.3281V32.1094C143.641 31.1148 143.246 30.161 142.542 29.4577C141.839 28.7545 140.885 28.3594 139.891 28.3594H135.672C135.297 28.3592 134.924 28.4153 134.566 28.5258C134.483 28.4897 134.399 28.4584 134.313 28.432L102.859 19.4531V18.75C102.859 17.7554 102.464 16.8016 101.761 16.0983C101.058 15.3951 100.104 15 99.1094 15H94.8906C93.8961 15 92.9422 15.3951 92.239 16.0983C91.5357 16.8016 91.1406 17.7554 91.1406 18.75V19.4531L59.6875 28.432C59.6014 28.4584 59.5169 28.4897 59.4344 28.5258C59.076 28.4153 58.7031 28.3592 58.3281 28.3594H54.1094C53.1148 28.3594 52.161 28.7545 51.4577 29.4577C50.7545 30.161 50.3594 31.1148 50.3594 32.1094V36.3281C50.3592 36.7031 50.4153 37.076 50.5258 37.4344C50.4897 37.5169 50.4584 37.6014 50.432 37.6875L41.4531 69.1406H40.75C39.7554 69.1406 38.8016 69.5357 38.0983 70.239C37.3951 70.9422 37 71.8961 37 72.8906V77.1094C37 78.1039 37.3951 79.0578 38.0983 79.761C38.8016 80.4643 39.7554 80.8594 40.75 80.8594H41.4531L50.432 112.313C50.4569 112.398 50.4883 112.482 50.5258 112.563C50.4153 112.922 50.3592 113.296 50.3594 113.672V117.891C50.3594 118.885 50.7545 119.839 51.4577 120.542C52.161 121.246 53.1148 121.641 54.1094 121.641H58.3281C58.7031 121.641 59.076 121.585 59.4344 121.474C59.5169 121.51 59.6014 121.542 59.6875 121.568L91.1406 130.547V131.25C91.1406 132.245 91.5357 133.198 92.239 133.902C92.9422 134.605 93.8961 135 94.8906 135H99.1094C100.104 135 101.058 134.605 101.761 133.902C102.464 133.198 102.859 132.245 102.859 131.25V130.547L134.313 121.561C134.399 121.535 134.483 121.503 134.566 121.467C134.924 121.58 135.297 121.639 135.672 121.641H139.891C140.885 121.641 141.839 121.246 142.542 120.542C143.246 119.839 143.641 118.885 143.641 117.891V113.672C143.641 113.296 143.585 112.922 143.474 112.563C143.511 112.483 143.542 112.4 143.568 112.315L152.612 80.8594H153.25C154.245 80.8594 155.198 80.4643 155.902 79.761C156.605 79.0578 157 78.1039 157 77.1094V72.8906C157 71.8961 156.605 70.9422 155.902 70.239C155.198 69.5357 154.245 69.1406 153.25 69.1406ZM135.672 32.1094H139.891V36.3281H135.672V32.1094ZM145.412 78.0773L139.656 83.8336V76.875H145.281V77.1094C145.283 77.4364 145.327 77.7617 145.412 78.0773V78.0773ZM145.281 72.8906V73.125H139.656V66.1664L145.412 71.9227C145.327 72.2383 145.283 72.5636 145.281 72.8906V72.8906ZM134.704 39.9469C135.02 40.0324 135.345 40.0766 135.672 40.0781H135.906V57.1148L126.721 47.9297L134.704 39.9469ZM132.098 76.875H135.906V87.5836L124.07 99.4195L110.976 86.3227L112.851 85.2375C113.136 85.0729 113.373 84.8361 113.537 84.551C113.702 84.2659 113.788 83.9425 113.788 83.6133V76.875H117.538C118.036 76.875 118.512 76.6775 118.864 76.3258C119.216 75.9742 119.413 75.4973 119.413 75C119.413 74.5027 119.216 74.0258 118.864 73.6742C118.512 73.3225 118.036 73.125 117.538 73.125H113.788V66.3867C113.788 66.0575 113.702 65.7341 113.537 65.449C113.373 65.1639 113.136 64.9271 112.851 64.7625L110.976 63.6773L124.07 50.5805L135.906 62.4164V73.125H132.098C131.6 73.125 131.123 73.3225 130.772 73.6742C130.42 74.0258 130.223 74.5027 130.223 75C130.223 75.4973 130.42 75.9742 130.772 76.3258C131.123 76.6775 131.6 76.875 132.098 76.875ZM89.5914 73.0055L95.125 76.2V88.9781L83.957 82.5305V67.4695L97 59.9391L108.271 66.4453L97 72.9516L91.4664 69.757C91.0356 69.5084 90.5237 69.4411 90.0433 69.5698C89.5629 69.6986 89.1533 70.013 88.9047 70.4437C88.656 70.8745 88.5887 71.3864 88.7175 71.8668C88.8463 72.3472 89.1606 72.7568 89.5914 73.0055V73.0055ZM83.0289 63.6773L81.1539 64.7625C80.8688 64.9271 80.6321 65.1639 80.4675 65.449C80.3029 65.7341 80.2163 66.0575 80.2164 66.3867V73.125H58.0938V62.4164L69.9297 50.5805L83.0289 63.6773ZM72.5805 47.9297L84.4164 36.0938H95.125V56.6906L86.3875 61.7367L72.5805 47.9297ZM80.207 76.875V83.6133C80.207 83.9425 80.2936 84.2659 80.4581 84.551C80.6227 84.8361 80.8594 85.0729 81.1445 85.2375L83.0195 86.3227L69.9297 99.4195L58.0938 87.5836V76.875H80.207ZM86.3875 88.2633L95.125 93.3094V113.906H84.4164L72.5805 102.07L86.3875 88.2633ZM98.875 56.6906V36.0938H109.584L121.42 47.9297L107.612 61.7367L98.875 56.6906ZM110.043 69.7523V82.5305L98.875 88.9781V76.2L110.043 69.7523ZM98.875 93.3094L107.612 88.2633L121.42 102.07L109.584 113.906H98.875V93.3094ZM124.07 45.2789L114.885 36.0938H131.922V36.3281C131.923 36.6551 131.968 36.9805 132.053 37.2961L124.07 45.2789ZM102.841 23.3391L131.952 31.657C131.933 31.807 131.923 31.9581 131.922 32.1094V32.3438H111.135L102.728 23.9367C102.781 23.7408 102.819 23.5409 102.841 23.3391ZM100.077 26.5875L105.834 32.3438H98.875V26.7188H99.1094C99.4364 26.7172 99.7617 26.6731 100.077 26.5875V26.5875ZM94.8906 18.75H99.1094V22.9688H94.8906V20.9203C94.8918 20.9 94.8918 20.8797 94.8906 20.8594V18.75ZM93.9227 26.5875C94.2383 26.6731 94.5636 26.7172 94.8906 26.7188H95.125V32.3438H88.1664L93.9227 26.5875ZM91.1594 23.3391C91.181 23.5409 91.2187 23.7408 91.2719 23.9367L82.8648 32.3438H62.0781V32.1094C62.0775 31.9581 62.0673 31.807 62.0477 31.657L91.1594 23.3391ZM62.0781 36.3281V36.0938H79.1148L69.9297 45.2789L61.9469 37.2961C62.0324 36.9805 62.0766 36.6551 62.0781 36.3281V36.3281ZM59.2961 39.9469L67.2789 47.9297L58.0938 57.1148V40.0781H58.3281C58.6551 40.0766 58.9805 40.0324 59.2961 39.9469V39.9469ZM54.1094 32.1094H58.3281V36.3281H54.1094V32.1094ZM53.657 40.0477C53.807 40.0673 53.9581 40.0775 54.1094 40.0781H54.3438V60.8648L45.9367 69.2719C45.7408 69.2187 45.5409 69.181 45.3391 69.1594L53.657 40.0477ZM48.7188 73.125V72.8906C48.7172 72.5636 48.6731 72.2383 48.5875 71.9227L54.3438 66.1664V73.125H48.7188ZM54.3438 76.875V83.8336L48.5875 78.0773C48.6731 77.7617 48.7172 77.4364 48.7188 77.1094V76.875H54.3438ZM44.9688 77.1094H40.75V72.8906H44.9688V77.1094ZM53.657 109.952L45.3391 80.8406C45.5409 80.819 45.7408 80.7813 45.9367 80.7281L54.3438 89.1352V109.922H54.1094C53.9581 109.923 53.807 109.933 53.657 109.952V109.952ZM58.3281 117.891H54.1094V113.672H58.3281V115.758C58.325 115.773 58.325 115.789 58.3281 115.805V117.891ZM59.2961 110.053C58.9805 109.968 58.6551 109.923 58.3281 109.922H58.0938V92.8852L67.2789 102.07L59.2961 110.053ZM69.9297 104.721L79.1148 113.906H62.0781V113.672C62.0766 113.345 62.0324 113.02 61.9469 112.704L69.9297 104.721ZM91.1594 126.661L62.0477 118.343C62.0672 118.193 62.0774 118.042 62.0781 117.891V117.656H82.8648L91.2719 126.063C91.2187 126.259 91.181 126.459 91.1594 126.661ZM93.9227 123.412L88.1664 117.656H95.125V123.281H94.8906C94.5636 123.283 94.2383 123.327 93.9227 123.412V123.412ZM99.1094 131.25H94.8906V127.031H99.1094V129.08C99.1082 129.1 99.1082 129.12 99.1094 129.141V131.25ZM100.077 123.412C99.7617 123.327 99.4364 123.283 99.1094 123.281H98.875V117.656H105.834L100.077 123.412ZM102.841 126.661C102.819 126.459 102.781 126.259 102.728 126.063L111.135 117.656H131.922V117.891C131.923 118.042 131.933 118.193 131.952 118.343L102.841 126.661ZM131.922 113.672V113.906H114.885L124.07 104.721L132.053 112.704C131.968 113.02 131.923 113.345 131.922 113.672V113.672ZM134.704 110.053L126.721 102.07L135.906 92.8852V109.922H135.672C135.345 109.923 135.02 109.968 134.704 110.053ZM139.891 117.891H135.672V113.672H139.891V117.891ZM140.345 109.952C140.195 109.933 140.043 109.923 139.891 109.922H139.656V89.1352L148.063 80.7281C148.277 80.7855 148.495 80.824 148.715 80.843L140.345 109.952ZM148.063 69.2719L139.656 60.8648V40.0781H139.891C140.043 40.0775 140.195 40.0673 140.345 40.0477L148.715 69.157C148.495 69.176 148.277 69.2145 148.063 69.2719ZM153.25 77.1094H149.031V72.8906H153.25V77.1094Z" fill="white"/>
<path d="M124.159 73.125H124.07C123.573 73.125 123.096 73.3225 122.744 73.6742C122.393 74.0258 122.195 74.5027 122.195 75C122.195 75.4973 122.393 75.9742 122.744 76.3258C123.096 76.6775 123.573 76.875 124.07 76.875H124.159C124.657 76.875 125.134 76.6775 125.485 76.3258C125.837 75.9742 126.034 75.4973 126.034 75C126.034 74.5027 125.837 74.0258 125.485 73.6742C125.134 73.3225 124.657 73.125 124.159 73.125Z" fill="white"/>
</svg>
