<?xml version="1.0" standalone="no"?>
<!DOCTYPE svg PUBLIC "-//W3C//DTD SVG 20010904//EN"
 "http://www.w3.org/TR/2001/REC-SVG-20010904/DTD/svg10.dtd">
<svg version="1.0" xmlns="http://www.w3.org/2000/svg"
 width="700.000000pt" height="700.000000pt" viewBox="0 0 700.000000 700.000000"
 preserveAspectRatio="xMidYMid meet">
<metadata>
Created by potrace 1.11, written by Peter Selinger 2001-2013
</metadata>
<g transform="translate(0.000000,700.000000) scale(0.100000,-0.100000)"
fill="#000000" stroke="none">
<path d="M3305 6988 c-46 -17 -101 -64 -120 -104 -20 -43 -23 -56 -24 -105 -1
-35 -3 -37 -58 -53 -164 -48 -511 -148 -528 -151 -11 -3 -49 -14 -85 -24 -89
-27 -841 -242 -860 -246 -14 -3 -81 -22 -262 -76 -37 -11 -72 -18 -77 -14 -6
3 -83 6 -171 6 -186 -1 -238 -15 -289 -80 -47 -59 -53 -94 -50 -288 l2 -178
-91 -320 c-51 -176 -162 -565 -247 -865 -86 -300 -162 -568 -170 -596 l-14
-50 -47 -3 c-89 -4 -171 -63 -201 -144 -15 -42 -17 -324 -2 -383 22 -86 115
-154 211 -154 l34 0 27 -87 c15 -49 133 -459 263 -913 l236 -825 -2 -190 c-1
-189 -1 -190 27 -245 19 -38 42 -64 73 -85 l45 -30 205 -2 205 -2 260 -74
c143 -41 269 -77 280 -80 29 -7 1247 -356 1268 -363 12 -4 17 -16 17 -41 0
-87 49 -166 125 -202 34 -17 65 -19 210 -20 159 -1 173 0 220 22 28 14 57 33
67 43 32 38 59 102 60 147 0 43 3 47 32 56 17 6 427 123 911 262 l880 251 183
-2 c120 -1 196 3 220 11 58 19 107 63 131 119 20 47 22 67 21 238 -1 170 1
195 24 272 13 47 77 267 141 490 64 223 150 522 192 665 41 143 76 267 78 275
2 8 11 38 19 65 8 28 25 89 39 136 13 48 27 91 30 97 4 5 31 12 60 15 30 3 65
11 78 19 47 26 96 86 108 132 14 58 14 314 0 372 -22 87 -129 163 -219 156
-26 -2 -27 2 -129 361 -57 199 -112 389 -122 422 -10 33 -32 110 -49 170 -17
61 -81 281 -141 490 l-111 380 2 190 c1 189 1 190 -27 245 -21 41 -40 62 -77
85 l-49 30 -197 2 -197 1 -194 55 c-998 283 -1607 458 -1619 466 -9 5 -18 31
-22 66 -12 93 -68 160 -153 184 -51 14 -340 13 -380 -1z m316 -230 c3 -75 1
-198 -3 -210 -5 -11 -31 -14 -124 -13 l-118 1 -1 109 c0 61 1 116 3 123 3 9
37 12 123 12 116 0 119 0 120 -22z m-458 -261 c3 -9 -92 -111 -241 -260 l-247
-247 -608 0 c-593 0 -607 0 -607 19 0 11 8 22 18 25 47 14 743 212 847 242 66
18 275 78 465 133 190 55 350 100 356 100 7 1 14 -5 17 -12z m817 -23 c69 -19
150 -42 180 -51 51 -14 252 -71 500 -143 191 -55 874 -250 877 -250 2 0 3 -9
3 -20 0 -20 -7 -20 -607 -20 l-608 0 -247 247 c-149 149 -244 251 -241 260 7
17 -1 18 143 -23z m-590 -319 l0 -165 -202 0 -203 0 165 165 c155 155 167 165
202 165 l38 0 0 -165z m461 -1 l164 -164 -203 0 -202 0 0 164 0 164 38 0 c37
1 47 -7 203 -164z m-2621 -153 c12 -1 15 -21 15 -121 0 -74 -4 -120 -10 -121
-52 -6 -228 -2 -232 5 -5 7 -7 130 -4 213 1 18 8 22 44 25 35 2 105 2 187 -1z
m4767 -5 c10 -9 8 -236 -2 -237 -66 -6 -228 -2 -234 6 -4 6 -7 60 -6 120 l0
110 40 5 c45 6 196 3 202 -4z m-3809 -493 l-268 -268 -230 230 c-218 218 -230
232 -230 267 l0 38 497 0 498 0 -267 -267z m1200 -335 l-3 -602 -245 -143
c-135 -78 -250 -142 -255 -143 -6 0 -190 180 -410 400 l-400 400 345 345 345
345 313 0 312 0 -2 -602z m1192 257 l345 -345 -402 -402 -401 -401 -29 14
c-15 8 -59 33 -98 56 -38 22 -93 54 -121 69 -27 16 -98 56 -157 89 l-106 60
-1 603 0 602 313 0 312 0 345 -345z m960 307 c0 -35 -12 -49 -230 -267 l-230
-230 -268 268 -267 267 498 0 497 0 0 -38z m-4530 -800 l0 -608 -250 -249
c-181 -180 -253 -246 -261 -238 -8 8 -5 31 11 84 11 41 23 81 25 89 3 13 417
1466 431 1513 3 9 14 17 25 17 19 0 19 -14 19 -608z m525 378 l230 -230 -268
-268 -267 -267 0 498 0 497 38 0 c35 0 49 -12 267 -230z m4235 -267 l0 -498
-267 267 -268 268 230 230 c218 218 232 230 267 230 l38 0 0 -497z m260 492
c0 -3 12 -44 26 -92 36 -122 135 -465 139 -483 2 -8 15 -53 29 -100 14 -47 32
-110 40 -140 8 -30 47 -165 86 -300 39 -135 79 -274 89 -310 10 -36 31 -109
47 -163 46 -159 38 -155 -248 131 l-248 247 0 607 c0 601 0 608 20 608 11 0
20 -2 20 -5z m-3725 -995 c208 -208 377 -381 375 -383 -3 -2 -30 -18 -61 -35
-61 -34 -89 -61 -94 -89 -2 -10 -4 -109 -4 -220 l-1 -203 -645 0 -645 0 0 312
0 313 342 342 c189 189 345 343 348 343 3 0 176 -171 385 -380z m3122 38 l343
-343 0 -312 0 -311 -136 -4 -136 -3 -29 -33 c-43 -47 -41 -102 5 -148 l34 -34
131 0 131 0 0 -313 0 -312 -345 -345 -346 -344 -379 379 c-209 209 -380 382
-380 385 0 3 25 18 56 35 102 55 99 45 102 296 l3 219 120 0 c138 0 167 10
194 66 15 31 15 43 6 76 -20 65 -53 78 -198 78 l-122 0 -3 221 -3 221 -31 26
c-17 15 -52 40 -79 55 l-48 29 379 379 c208 208 381 379 384 379 3 0 159 -154
347 -342z m-1599 -388 c177 -102 322 -187 322 -190 0 -3 -146 -89 -325 -193
l-325 -187 -165 95 c-91 53 -179 98 -195 102 -83 16 -151 -74 -114 -152 15
-33 31 -44 253 -170 l106 -61 3 -372 c1 -205 0 -372 -3 -372 -3 0 -100 56
-217 124 -117 68 -260 150 -318 184 l-105 60 0 443 0 442 195 112 c107 62 276
160 375 218 99 58 183 104 186 104 4 -1 151 -85 327 -187z m-2818 -380 l0
-200 -162 2 -163 3 -3 34 c-3 32 6 44 160 198 89 89 164 163 165 163 2 0 3
-90 3 -200z m5308 -162 l-2 -38 -163 0 -163 0 0 202 0 203 165 -165 c159 -159
165 -166 163 -202z m-2058 -217 l0 -370 -40 -23 c-22 -13 -86 -50 -143 -82
-56 -33 -182 -106 -280 -163 -98 -56 -180 -103 -182 -103 -3 0 -5 166 -5 369
0 283 3 371 13 379 6 5 35 22 62 37 28 14 64 34 80 44 17 10 104 61 195 113
91 53 192 112 225 131 33 20 63 36 68 37 4 0 7 -166 7 -369z m-3800 190 c8 -2
6 -228 -2 -236 -6 -6 -171 -10 -225 -6 -16 1 -19 237 -3 243 8 2 214 2 230 -1z
m6316 -3 c7 -7 6 -229 -1 -236 -7 -7 -225 -5 -232 2 -4 4 -8 58 -8 121 l-1
114 30 3 c55 5 205 2 212 -4z m-5766 -430 l0 -201 -165 164 c-159 158 -165
165 -163 202 l2 37 163 0 163 0 0 -202z m1512 -17 c3 -251 0 -241 102 -296 31
-17 56 -32 56 -35 0 -3 -171 -176 -380 -385 l-379 -379 -346 344 -345 345 0
312 0 313 644 0 645 0 3 -219z m3796 182 c2 -37 -4 -44 -163 -203 l-165 -164
0 202 0 202 163 0 163 0 2 -37z m-5548 -437 l240 -239 0 -604 c0 -535 -2 -604
-15 -610 -9 -3 -18 -4 -20 -2 -4 5 -173 587 -220 759 -2 8 -38 134 -80 280
-42 146 -78 274 -80 284 -3 11 -11 40 -19 65 -8 25 -16 55 -19 66 -3 11 -19
67 -36 125 -17 58 -31 109 -31 113 0 31 69 -28 280 -237z m5747 237 c-3 -5
-64 -215 -137 -468 -72 -253 -176 -613 -230 -800 -54 -187 -103 -359 -109
-382 -9 -32 -17 -43 -31 -43 -20 0 -20 11 -20 608 l0 608 242 242 c179 179
248 242 266 242 13 0 21 -3 19 -7z m-3377 -576 l245 -142 3 -603 2 -602 -313
0 -312 0 -345 346 -344 345 400 400 c219 219 403 399 409 399 5 0 120 -64 255
-143z m1385 -257 l400 -400 -345 -345 -345 -345 -313 0 -312 0 2 602 3 602
245 143 c135 78 250 143 255 143 6 0 190 -180 410 -400z m-3007 -153 c131
-131 239 -240 242 -243 2 -2 -99 -108 -225 -235 -223 -223 -231 -229 -267
-227 l-38 2 0 495 0 494 26 -24 c14 -13 132 -131 262 -262z m4252 -212 l0
-495 -37 0 c-36 0 -50 12 -265 227 -126 125 -228 231 -228 234 0 6 520 529
527 529 1 0 3 -223 3 -495z m-3584 -455 c142 -144 261 -263 263 -265 2 -3
-219 -5 -492 -5 l-497 0 0 37 c0 36 12 50 227 265 125 126 230 228 234 228 3
0 122 -117 265 -260z m3126 33 c216 -216 228 -230 228 -265 l0 -38 -497 0
c-443 0 -496 2 -483 15 222 228 507 513 515 514 5 0 112 -101 237 -226z
m-4076 -296 c5 -4 8 -59 9 -122 l1 -115 -91 -1 c-95 -1 -148 1 -153 6 -3 3 -5
160 -3 220 1 19 7 20 115 20 63 0 118 -4 122 -8z m4759 1 c8 -8 10 -227 2
-234 -7 -7 -223 -8 -234 -1 -6 4 -10 241 -4 242 20 4 231 -2 236 -7z m-3080
-467 c131 -132 242 -246 247 -255 5 -8 4 -17 -1 -21 -8 -4 -1177 323 -1401
392 -30 9 -59 18 -65 19 -11 2 -139 38 -197 56 -26 8 -38 17 -38 30 0 17 24
18 608 18 l608 0 239 -239z m473 77 l-3 -163 -35 -3 c-33 -3 -44 6 -200 163
l-165 165 203 0 202 0 -2 -162z m462 -3 c-157 -158 -166 -165 -202 -163 l-38
1 0 164 0 163 202 0 203 0 -165 -165z m1690 146 c0 -10 -8 -21 -17 -24 -10 -2
-328 -93 -708 -202 -379 -108 -697 -199 -705 -201 -8 -2 -71 -20 -140 -40 -78
-22 -126 -32 -128 -25 -2 6 -4 13 -5 16 -1 2 108 115 243 250 l244 245 608 0
c589 0 608 -1 608 -19z m-1925 -533 c8 -5 11 -108 6 -221 -1 -16 -12 -17 -123
-15 l-121 3 -1 103 c-1 57 2 111 6 121 5 15 20 17 115 16 59 0 113 -3 118 -7z"/>
<path d="M5019 3587 c-96 -64 -31 -215 83 -193 99 18 122 158 33 200 -45 22
-76 20 -116 -7z"/>
</g>
</svg>
