<svg width="289" height="120" viewBox="0 0 289 120" fill="none" xmlns="http://www.w3.org/2000/svg">
<path d="M9.69841 100.727C11.1544 100.727 12.4283 101.027 13.5203 101.628C14.6123 102.228 15.4495 103.093 16.0319 104.221C16.6324 105.331 16.9327 106.651 16.9327 108.179H14.2574C14.2574 106.596 13.8661 105.368 13.0835 104.494C12.3009 103.602 11.1726 103.156 9.69841 103.156C8.06045 103.156 6.81378 103.666 5.9584 104.685C5.10302 105.686 4.67533 107.169 4.67533 109.135V111.592C4.67533 113.539 5.09392 115.022 5.9311 116.042C6.76828 117.061 8.00585 117.57 9.64381 117.57C11.1726 117.57 12.3373 117.134 13.1381 116.26C13.9571 115.386 14.3666 114.167 14.3666 112.602H16.9327C16.9327 114.112 16.6324 115.423 16.0319 116.533C15.4495 117.643 14.6123 118.499 13.5203 119.099C12.4283 119.7 11.1544 120 9.69841 120C7.27787 120 5.38512 119.263 4.02015 117.789C2.67338 116.296 2 114.231 2 111.592V109.135C2 106.514 2.67338 104.458 4.02015 102.965C5.38512 101.473 7.27787 100.727 9.69841 100.727Z" fill="#232947"/>
<path d="M28.237 101L35.5532 119.727H32.6595L31.0761 115.659H22.1219L20.5659 119.727H17.9724L25.2887 101H28.237ZM26.7082 104.221H26.5444L23.0774 113.23H30.1479L26.7082 104.221Z" fill="#232947"/>
<path d="M45.6087 101C47.2649 101 48.6208 101.391 49.6763 102.174C50.7501 102.956 51.287 104.03 51.287 105.395C51.287 106.614 50.9594 107.652 50.3042 108.507C49.6672 109.362 48.8756 109.881 47.9292 110.063V110.2C48.8028 110.545 49.5217 111.146 50.0858 112.001C50.65 112.857 50.9321 113.885 50.9321 115.086C50.9321 116.087 50.9867 116.842 51.0959 117.352C51.2051 117.862 51.3507 118.216 51.5327 118.417C51.7147 118.617 51.9786 118.772 52.3244 118.881V119.645C51.924 119.809 51.4963 119.891 51.0413 119.891C50.1677 119.891 49.4853 119.636 48.9939 119.126C48.5025 118.599 48.2568 117.616 48.2568 116.178C48.2568 114.704 47.9474 113.557 47.3286 112.738C46.728 111.901 45.9727 111.483 45.0628 111.483H40.3127V119.727H37.6373V101H45.6087ZM40.3127 103.429V109.053H45.6361C46.4186 109.053 47.1102 108.789 47.7108 108.261C48.3114 107.734 48.6117 107.078 48.6117 106.296V106.187C48.6117 105.386 48.3387 104.731 47.7927 104.221C47.2467 103.693 46.5278 103.429 45.6361 103.429H40.3127Z" fill="#232947"/>
<path d="M61.877 101C63.4422 101 64.8071 101.345 65.9719 102.037C67.1367 102.71 68.0376 103.684 68.6746 104.958C69.3115 106.214 69.63 107.697 69.63 109.408V111.319C69.63 113.03 69.3115 114.522 68.6746 115.796C68.0376 117.052 67.1367 118.025 65.9719 118.717C64.8071 119.39 63.4422 119.727 61.877 119.727H55.3798V101H61.877ZM58.0551 103.429V117.297H61.877C63.4968 117.297 64.7434 116.797 65.617 115.796C66.5088 114.777 66.9547 113.284 66.9547 111.319V109.408C66.9547 107.479 66.5179 106.005 65.6443 104.985C64.7889 103.948 63.5332 103.429 61.877 103.429H58.0551Z" fill="#232947"/>
<path d="M81.1177 101L88.4339 119.727H85.5402L83.9568 115.659H75.0027L73.4466 119.727H70.8532L78.1694 101H81.1177ZM79.5889 104.221H79.4251L75.9581 113.23H83.0287L79.5889 104.221Z" fill="#232947"/>
<path d="M104.441 101V119.727H102.175L93.0296 106.023L92.9477 106.05V119.727H90.5181V101H92.8658L101.929 114.54L102.011 114.513V101H104.441Z" fill="#232947"/>
<path d="M115.834 100.727C117.381 100.727 118.737 101.063 119.901 101.737C121.066 102.41 121.967 103.384 122.604 104.658C123.259 105.914 123.587 107.406 123.587 109.135V111.592C123.587 113.321 123.259 114.822 122.604 116.096C121.967 117.352 121.066 118.317 119.901 118.99C118.737 119.663 117.381 120 115.834 120C114.287 120 112.931 119.663 111.766 118.99C110.601 118.317 109.691 117.352 109.036 116.096C108.399 114.822 108.081 113.321 108.081 111.592V109.135C108.081 107.406 108.399 105.914 109.036 104.658C109.691 103.384 110.601 102.41 111.766 101.737C112.931 101.063 114.287 100.727 115.834 100.727ZM115.834 103.156C114.232 103.156 112.985 103.666 112.094 104.685C111.202 105.704 110.756 107.188 110.756 109.135V111.592C110.756 113.539 111.184 115.022 112.039 116.042C112.913 117.061 114.178 117.57 115.834 117.57C117.435 117.57 118.682 117.07 119.574 116.069C120.465 115.05 120.911 113.557 120.911 111.592V109.135C120.911 107.188 120.475 105.704 119.601 104.685C118.746 103.666 117.49 103.156 115.834 103.156Z" fill="#232947"/>
<path d="M139.409 100.727C141.465 100.727 143.076 101.182 144.241 102.092C145.424 103.002 146.015 104.294 146.015 105.968V106.296H143.34V105.886C143.34 105.013 142.985 104.339 142.275 103.866C141.565 103.393 140.628 103.156 139.463 103.156C138.171 103.156 137.161 103.375 136.433 103.812C135.723 104.23 135.368 104.84 135.368 105.641C135.368 106.241 135.568 106.733 135.969 107.115C136.387 107.497 136.897 107.797 137.498 108.016C138.116 108.234 138.963 108.48 140.036 108.753C141.42 109.117 142.539 109.472 143.394 109.817C144.25 110.163 144.978 110.682 145.578 111.373C146.197 112.065 146.506 112.984 146.506 114.131C146.506 116.169 145.879 117.661 144.623 118.608C143.385 119.536 141.638 120 139.381 120C137.125 120 135.368 119.527 134.113 118.58C132.875 117.616 132.256 116.224 132.256 114.404L132.283 113.858H134.959L134.931 114.431C134.931 115.487 135.323 116.278 136.105 116.806C136.906 117.316 138.007 117.57 139.409 117.57C140.774 117.57 141.847 117.325 142.63 116.833C143.431 116.324 143.831 115.632 143.831 114.759C143.831 114.067 143.613 113.512 143.176 113.093C142.757 112.656 142.22 112.32 141.565 112.083C140.928 111.847 140.055 111.583 138.944 111.292C137.58 110.928 136.488 110.582 135.669 110.254C134.85 109.927 134.149 109.426 133.567 108.753C132.984 108.061 132.693 107.16 132.693 106.05C132.693 104.248 133.303 102.911 134.522 102.037C135.741 101.163 137.37 100.727 139.409 100.727Z" fill="#232947"/>
<path d="M162.503 101V103.429H156.633V119.727H153.958V103.429H148.088V101H162.503Z" fill="#232947"/>
<path d="M173.016 101L180.332 119.727H177.439L175.855 115.659H166.901L165.345 119.727H162.752L170.068 101H173.016ZM171.487 104.221H171.324L167.857 113.23H174.927L171.487 104.221Z" fill="#232947"/>
<path d="M196.312 101L189.432 109.271L196.53 119.727H193.418L187.74 111.319L185.092 114.103V119.727H182.417V101H185.092V110.746L193.227 101H196.312Z" fill="#232947"/>
<path d="M211.164 101L210.809 103.429H201.555V108.944H209.936V111.373H201.555V117.297H210.973L211.355 119.727H198.879V101H211.164Z" fill="#232947"/>
<path d="M228.715 101C229.771 101 230.726 101.236 231.582 101.709C232.437 102.183 233.101 102.838 233.574 103.675C234.066 104.494 234.311 105.422 234.311 106.46C234.311 107.497 234.066 108.434 233.574 109.271C233.101 110.09 232.437 110.736 231.582 111.21C230.726 111.683 229.771 111.919 228.715 111.919H223.31V119.727H220.635V101H228.715ZM223.31 103.429V109.49H228.469C229.325 109.49 230.062 109.199 230.681 108.616C231.318 108.016 231.636 107.297 231.636 106.46C231.636 105.604 231.318 104.885 230.681 104.303C230.062 103.721 229.325 103.429 228.469 103.429H223.31Z" fill="#232947"/>
<path d="M244.031 100.727C245.578 100.727 246.934 101.063 248.098 101.737C249.263 102.41 250.164 103.384 250.801 104.658C251.456 105.914 251.784 107.406 251.784 109.135V111.592C251.784 113.321 251.456 114.822 250.801 116.096C250.164 117.352 249.263 118.317 248.098 118.99C246.934 119.663 245.578 120 244.031 120C242.484 120 241.128 119.663 239.963 118.99C238.798 118.317 237.888 117.352 237.233 116.096C236.596 114.822 236.278 113.321 236.278 111.592V109.135C236.278 107.406 236.596 105.914 237.233 104.658C237.888 103.384 238.798 102.41 239.963 101.737C241.128 101.063 242.484 100.727 244.031 100.727ZM244.031 103.156C242.429 103.156 241.182 103.666 240.291 104.685C239.399 105.704 238.953 107.188 238.953 109.135V111.592C238.953 113.539 239.381 115.022 240.236 116.042C241.11 117.061 242.375 117.57 244.031 117.57C245.632 117.57 246.879 117.07 247.771 116.069C248.662 115.05 249.108 113.557 249.108 111.592V109.135C249.108 107.188 248.672 105.704 247.798 104.685C246.943 103.666 245.687 103.156 244.031 103.156Z" fill="#232947"/>
<path d="M262.333 100.727C263.88 100.727 265.236 101.063 266.401 101.737C267.565 102.41 268.466 103.384 269.103 104.658C269.758 105.914 270.086 107.406 270.086 109.135V111.592C270.086 113.321 269.758 114.822 269.103 116.096C268.466 117.352 267.565 118.317 266.401 118.99C265.236 119.663 263.88 120 262.333 120C260.786 120 259.43 119.663 258.265 118.99C257.101 118.317 256.191 117.352 255.535 116.096C254.898 114.822 254.58 113.321 254.58 111.592V109.135C254.58 107.406 254.898 105.914 255.535 104.658C256.191 103.384 257.101 102.41 258.265 101.737C259.43 101.063 260.786 100.727 262.333 100.727ZM262.333 103.156C260.731 103.156 259.485 103.666 258.593 104.685C257.701 105.704 257.255 107.188 257.255 109.135V111.592C257.255 113.539 257.683 115.022 258.538 116.042C259.412 117.061 260.677 117.57 262.333 117.57C263.935 117.57 265.181 117.07 266.073 116.069C266.965 115.05 267.411 113.557 267.411 111.592V109.135C267.411 107.188 266.974 105.704 266.1 104.685C265.245 103.666 263.989 103.156 262.333 103.156Z" fill="#232947"/>
<path d="M276.404 101V117.297H285.003L285.385 119.727H273.729V101H276.404Z" fill="#232947"/>
<g filter="url(#filter0_d)">
<path d="M19.4591 76.4391H49.9892V85.4387H2.25745L33.3571 38.6183H4.08014V29.6187H50.5588L19.4591 76.4391Z" fill="#232947"/>
<path d="M130.844 29.6187H139.274L140.527 38.8461C143.413 35.2767 146.147 32.6566 148.73 30.9858C151.388 29.315 154.16 28.4796 157.046 28.4796C157.957 28.4796 158.83 28.5935 159.666 28.8213L158.64 40.0992C157.653 39.8714 156.514 39.7575 155.223 39.7575C152.413 39.7575 149.755 40.403 147.249 41.6941C144.742 42.9092 142.92 44.3522 141.781 46.023V85.4387H130.844V29.6187Z" fill="#232947"/>
<path d="M198.9 28.4796C203.912 28.4796 208.317 29.8086 212.114 32.4667C215.988 35.1248 218.949 38.6942 221 43.175C223.051 47.5798 224.076 52.3644 224.076 57.5287C224.076 62.8449 222.937 67.7434 220.658 72.2242C218.456 76.629 215.418 80.1225 211.545 82.7046C207.748 85.2868 203.533 86.5779 198.9 86.5779C195.482 86.5779 192.179 85.8944 188.989 84.5273C185.799 83.0844 183.331 81.1098 181.584 78.6036L180.445 85.4387H171.332V0H181.584V36.1121C183.635 33.7578 186.179 31.8971 189.217 30.5301C192.331 29.1631 195.558 28.4796 198.9 28.4796ZM197.647 77.4644C202.431 77.4644 206.267 75.5658 209.153 71.7685C212.114 67.8953 213.595 63.1487 213.595 57.5287C213.595 51.7569 212.114 47.0103 209.153 43.2889C206.267 39.4917 202.431 37.593 197.647 37.593C192.938 37.593 188.989 39.3398 185.799 42.8333C182.61 46.2508 181.015 51.1493 181.015 57.5287C181.015 64.136 182.572 69.1104 185.685 72.452C188.875 75.7936 192.862 77.4644 197.647 77.4644Z" fill="#232947"/>
<path d="M252.178 86.5779C247.014 86.5779 242.837 85.059 239.647 82.0211C236.533 78.9833 234.976 75.1101 234.976 70.4015C234.976 63.3385 238.318 58.2882 245.001 55.2503C251.684 52.2125 259.469 50.6177 268.354 50.4658C268.354 45.4534 267.367 42.0738 265.393 40.3271C263.494 38.5044 260.418 37.593 256.165 37.593C253.811 37.593 251.457 37.9727 249.102 38.7322C246.748 39.4157 244.204 40.7068 241.47 42.6054L239.989 34.2894C242.267 32.5426 245.077 31.1377 248.419 30.0744C251.76 29.0112 255.254 28.4796 258.899 28.4796C263.684 28.4796 267.481 29.315 270.291 30.9858C273.177 32.6566 275.265 35.4286 276.556 39.3018C277.923 43.175 278.607 48.4912 278.607 55.2503V66.6422C278.607 69.68 278.721 71.9963 278.949 73.5912C279.253 75.1101 279.86 76.2872 280.771 77.1227C281.683 77.958 283.088 78.3757 284.986 78.3757H286.012L284.417 86.5779H283.619C280.43 86.5779 277.924 86.2741 276.101 85.6665C274.278 85.059 272.873 84.1856 271.886 83.0464C270.975 81.9072 270.101 80.3503 269.266 78.3757C264.557 83.8438 258.861 86.5779 252.178 86.5779ZM254.115 78.3757C256.849 78.3757 259.469 77.6922 261.975 76.3252C264.557 74.9582 266.684 73.1355 268.354 70.8571V57.5287C260.152 57.8325 254.266 58.9337 250.697 60.8323C247.204 62.655 245.457 65.6549 245.457 69.8319C245.457 72.7178 246.216 74.8823 247.735 76.3252C249.33 77.6922 251.457 78.3757 254.115 78.3757Z" fill="#232947"/>
</g>
<g filter="url(#filter1_d)">
<g filter="url(#filter2_d)">
<path d="M88.9871 85.638C106.621 85.638 120.916 71.343 120.916 53.7091C120.916 36.0753 106.621 21.7803 88.9871 21.7803C71.3533 21.7803 57.0582 36.0753 57.0582 53.7091C57.0582 71.343 71.3533 85.638 88.9871 85.638Z" stroke="#232947" stroke-width="5"/>
</g>
<path d="M88.3886 32.1029C89.4515 31.5656 90.749 32.8121 90.1842 33.8415C89.8563 34.6807 88.6127 34.9039 87.9775 34.2642C87.3045 33.6503 87.524 32.4369 88.3886 32.1029ZM76.9562 33.2976C77.6019 33.04 78.4192 33.6134 78.3534 34.2956C78.4219 35.0363 77.4878 35.5814 76.8297 35.2294C75.9577 34.902 76.0574 33.5297 76.9562 33.2976ZM100.371 35.2502C99.3621 35.132 99.2024 33.594 100.174 33.2844C100.927 32.9281 101.619 33.5962 101.729 34.2886C101.571 34.8798 101.06 35.4211 100.371 35.2502ZM79.5575 38.0148C80.637 37.3529 82.1773 38.3386 82.0112 39.5541C81.9552 40.7815 80.2736 41.4925 79.3249 40.6628C78.4075 40.0111 78.5465 38.5159 79.5575 38.0148ZM96.0364 38.7171C96.518 37.5138 98.4694 37.4774 99.0176 38.6488C99.5594 39.5603 98.893 40.689 97.9276 40.9989C96.6489 41.2304 95.4344 39.8903 96.0364 38.7171ZM87.0119 40.9306C87.0014 39.8964 87.9731 39.1258 88.987 39.0553C89.6595 39.1861 90.3925 39.4638 90.6809 40.1217C91.2186 41.0292 90.7412 42.2787 89.7697 42.6953C89.3254 42.9366 88.8002 42.8461 88.3164 42.8179C87.5769 42.466 86.9541 41.7757 87.0119 40.9306ZM70.0102 42.4376C70.9963 41.8499 72.3267 42.9224 71.9534 43.9609C71.7478 44.8592 70.5023 45.2246 69.7903 44.6511C69.0302 44.1138 69.1507 42.822 70.0102 42.4376ZM106.519 42.4357C107.356 41.806 108.736 42.5284 108.637 43.5524C108.693 44.4861 107.499 45.1903 106.669 44.7095C105.754 44.311 105.66 42.9468 106.519 42.4357ZM91.7931 44.2949C93.1737 43.8141 94.8135 44.3895 95.6004 45.5827C96.6384 47.0415 96.0861 49.2631 94.4753 50.1001C92.8063 51.0901 90.3691 50.251 89.7527 48.444C89.0528 46.8264 90.0723 44.802 91.7931 44.2949ZM83.6928 44.454C85.2229 43.7538 87.2821 44.3412 88.0212 45.8586C88.8909 47.3356 88.2184 49.3922 86.6635 50.1547C85.1065 51.0119 82.91 50.3621 82.1566 48.7764C81.3117 47.2429 82.062 45.1601 83.6928 44.454ZM75.5819 47.1422C75.6982 46.1865 76.6283 45.5645 77.5665 45.5002C78.5775 45.6184 79.3851 46.3796 79.4951 47.3715C79.4287 48.3535 78.646 49.3132 77.5726 49.3073C76.3917 49.4059 75.3564 48.2669 75.5819 47.1422ZM99.5387 45.708C100.751 45.0239 102.434 46.0198 102.381 47.3701C102.464 48.8007 100.601 49.8089 99.3933 48.9697C98.1393 48.271 98.237 46.303 99.5387 45.708ZM80.3963 50.7502C81.8142 50.372 83.4355 51.0199 84.1309 52.2834C84.8927 53.5552 84.5813 55.322 83.3982 56.2548C81.8808 57.623 79.0822 57.0736 78.2747 55.2064C77.3466 53.4947 78.4739 51.2008 80.3963 50.7502ZM95.7604 50.7431C97.1388 50.3609 98.7581 50.876 99.4991 52.0934C100.479 53.4857 100.011 55.5624 98.5526 56.4599C97.0247 57.5022 94.658 56.955 93.8172 55.3253C92.798 53.6396 93.8235 51.2573 95.7604 50.7431ZM71.2765 52.3317C72.5013 51.8825 73.859 53.1928 73.3628 54.37C73.0597 55.4425 71.5006 55.839 70.6952 55.0482C69.7527 54.3057 70.1016 52.6536 71.2765 52.3317ZM104.475 54.04C104.44 53.0562 105.182 52.1849 106.223 52.1305C107.062 52.2593 107.877 52.9153 107.811 53.8006C107.888 54.9698 106.435 55.7645 105.407 55.2151C104.926 54.9778 104.679 54.4989 104.475 54.04ZM65.2541 52.9092C65.991 52.5974 66.9025 53.2165 66.7342 54.0098C66.6947 54.9081 65.3268 55.2534 64.8242 54.5029C64.3802 53.9816 64.646 53.1779 65.2541 52.9092ZM111.716 52.8912C112.235 52.5331 113.067 52.7905 113.273 53.3781C113.622 54.0199 112.982 54.8993 112.237 54.7908C111.191 54.8832 110.853 53.3377 111.716 52.8912ZM84.3987 57.2032C86.3377 56.7143 88.422 58.2818 88.4342 60.2174C88.5608 62.1732 86.5079 63.9076 84.523 63.4559C82.9888 63.2164 81.785 61.7837 81.8347 60.2807C81.8306 58.8432 82.9495 57.5072 84.3987 57.2032ZM92.0777 57.1991C94.0457 56.6658 96.1922 58.2615 96.161 60.2417C96.2649 62.1614 94.2761 63.8374 92.3327 63.4566C90.5039 63.2273 89.1545 61.2794 89.6651 59.559C89.9229 58.4125 90.9109 57.4802 92.0777 57.1991ZM77.272 58.3905C78.6338 58.1653 79.9106 59.6382 79.3583 60.8918C78.9555 62.2276 76.9501 62.59 76.0635 61.4988C75.0235 60.4509 75.7999 58.5352 77.272 58.3905ZM99.7918 58.4494C101.006 57.9563 102.497 58.9747 102.403 60.2523C102.452 61.6589 100.612 62.6288 99.4243 61.8078C98.0793 61.0707 98.3241 58.9016 99.7918 58.4494ZM106.086 64.57C105.611 63.7107 106.474 62.5718 107.459 62.7309C107.948 62.7228 108.291 63.097 108.605 63.411C108.669 63.9201 108.777 64.5277 108.341 64.9201C107.749 65.6465 106.408 65.4392 106.086 64.57ZM70.0061 62.9701C70.9258 62.3765 72.2494 63.2618 72.0426 64.3043C71.9326 65.2262 70.7347 65.7531 69.9456 65.23C69.0987 64.7551 69.13 63.4029 70.0061 62.9701ZM88.177 64.9C89.381 64.3849 90.915 65.4011 90.8009 66.6868C90.8902 68.1075 88.9929 69.0914 87.8156 68.2383C86.5079 67.5057 86.7259 65.3505 88.177 64.9ZM79.7609 66.8034C80.7864 66.2803 82.1627 67.1837 82.0693 68.2964C82.1005 69.2101 81.1807 69.9887 80.2507 69.8537C79.4804 69.8377 78.9781 69.1682 78.7311 68.5316C78.7438 67.8378 79.0384 67.0651 79.7609 66.8034ZM96.8086 66.8195C97.8632 66.1876 99.3621 67.0951 99.2624 68.2851C99.2895 69.5287 97.5955 70.3253 96.6136 69.5084C95.6628 68.868 95.7789 67.3286 96.8086 66.8195ZM99.7732 73.9246C99.3041 73.2365 99.8564 72.4075 100.618 72.2505C101.231 72.3713 101.878 72.8178 101.75 73.5062C101.66 74.4378 100.255 74.7236 99.7732 73.9246ZM76.2401 73.327C76.4268 72.7817 76.8794 72.2396 77.5417 72.3815C78.507 72.4479 78.7935 73.8584 77.9486 74.2931C77.1888 74.7898 76.3074 74.1097 76.2401 73.327ZM87.5935 73.9527C87.7783 73.1459 88.8556 72.7535 89.5656 73.1821C90.0348 73.3774 90.1718 73.8863 90.2923 74.3189C90.2279 74.5442 90.1703 74.7697 90.1138 74.995C89.8231 75.329 89.4496 75.663 88.9658 75.651C88.0667 75.7531 87.2557 74.7678 87.5935 73.9527Z" fill="#232947"/>
</g>
<defs>
<filter id="filter0_d" x="0.257446" y="0" width="287.754" height="92.5779" filterUnits="userSpaceOnUse" color-interpolation-filters="sRGB">
<feFlood flood-opacity="0" result="BackgroundImageFix"/>
<feColorMatrix in="SourceAlpha" type="matrix" values="0 0 0 0 0 0 0 0 0 0 0 0 0 0 0 0 0 0 127 0"/>
<feOffset dy="4"/>
<feGaussianBlur stdDeviation="1"/>
<feColorMatrix type="matrix" values="0 0 0 0 0 0 0 0 0 0 0 0 0 0 0 0 0 0 0.25 0"/>
<feBlend mode="normal" in2="BackgroundImageFix" result="effect1_dropShadow"/>
<feBlend mode="normal" in="SourceGraphic" in2="effect1_dropShadow" result="shape"/>
</filter>
<filter id="filter1_d" x="52.5582" y="19.2803" width="72.8577" height="74.8577" filterUnits="userSpaceOnUse" color-interpolation-filters="sRGB">
<feFlood flood-opacity="0" result="BackgroundImageFix"/>
<feColorMatrix in="SourceAlpha" type="matrix" values="0 0 0 0 0 0 0 0 0 0 0 0 0 0 0 0 0 0 127 0"/>
<feOffset dy="4"/>
<feGaussianBlur stdDeviation="1"/>
<feColorMatrix type="matrix" values="0 0 0 0 0 0 0 0 0 0 0 0 0 0 0 0 0 0 0.25 0"/>
<feBlend mode="normal" in2="BackgroundImageFix" result="effect1_dropShadow"/>
<feBlend mode="normal" in="SourceGraphic" in2="effect1_dropShadow" result="shape"/>
</filter>
<filter id="filter2_d" x="52.5582" y="19.2803" width="72.8577" height="72.8577" filterUnits="userSpaceOnUse" color-interpolation-filters="sRGB">
<feFlood flood-opacity="0" result="BackgroundImageFix"/>
<feColorMatrix in="SourceAlpha" type="matrix" values="0 0 0 0 0 0 0 0 0 0 0 0 0 0 0 0 0 0 127 0"/>
<feOffset dy="2"/>
<feGaussianBlur stdDeviation="1"/>
<feColorMatrix type="matrix" values="0 0 0 0 0 0 0 0 0 0 0 0 0 0 0 0 0 0 0.25 0"/>
<feBlend mode="normal" in2="BackgroundImageFix" result="effect1_dropShadow"/>
<feBlend mode="normal" in="SourceGraphic" in2="effect1_dropShadow" result="shape"/>
</filter>
</defs>
</svg>
